<svg version="1.1" id="Layer_1" xmlns="http://www.w3.org/2000/svg" x="0" y="0" width="73" height="247" style="enable-background:new 0 0 73 247" xml:space="preserve"><style>.st1,.st2{fill-rule:evenodd;clip-rule:evenodd;fill:#e4eaf2}.st2{opacity:.6;enable-background:new}</style><g id="Artboard" style="opacity:.6"><g id="Group-17-Copy-18" transform="matrix(-1 0 0 1 70 0)"><path id="Path-9" class="st1" d="M0 53.1v28.4l24.6-14.2z"/><path id="Path-9-Copy-3" class="st1" d="M37 73.9v28.4l24.6-14.2z"/><path id="Path-9-Copy" class="st1" d="M67 53.1v28.4L42.4 67.3z"/><path id="Path-9-Copy-2" class="st2" d="M29 73.9v28.4L4.4 88.1z"/><path id="Path-9_1_" class="st1" d="M0 11.1v28.4l24.6-14.2z"/><path id="Path-9-Copy-3_1_" class="st1" d="M37 31.9v28.4l24.6-14.2z"/><path id="Path-9-Copy_1_" class="st1" d="M67 11.1v28.4L42.4 25.3z"/><path id="Path-9-Copy-2_1_" class="st2" d="M29 31.9v28.4L4.4 46.1z"/><path id="Path-9-Copy-3_2_" class="st1" d="M37-9.1v28.4L61.6 5.1z"/><path id="Path-9-Copy-2_2_" class="st2" d="M29-9.1v28.4L4.4 5.1z"/><path id="Path-9-Copy-4" class="st1" d="M65 96.4v26.3l-22.7-13.2z"/><path id="Path-9-Copy-5" class="st1" d="M1 96.4v26.3l22.7-13.2z"/><path id="Path-9-Copy-6" class="st1" d="M40 118.9v22.5l18.9-11.2z"/><path id="Path-9-Copy-7" class="st1" d="M25 118.9v22.5L6.1 130.2z"/><path id="Path-9-Copy-8" class="st1" d="M61 143.3V162l-15.1-9.3z"/><path id="Path-9-Copy-11" class="st1" d="M25 163.9v18.8l-15.1-9.4z"/><path id="Path-9-Copy-9" class="st1" d="M5 143.3V162l15.1-9.3z"/><path id="Path-9-Copy-10" class="st1" d="M40 163.9v18.8l15.1-9.4z"/><path id="Path-9-Copy-12" class="st1" d="M5 188.3v15l11.3-7.5z"/><path id="Path-9-Copy-13" class="st1" d="M61 188.3v15l-11.3-7.5z"/><path id="Path-9-Copy-14" class="st1" d="M23 210.8V222l-7.6-5.6z"/><path id="Path-9-Copy-16" class="st1" d="M50 237v9.4l-5.7-4.7z"/><path id="Path-9-Copy-17" class="st1" d="M18 237v9.4l5.7-4.7z"/><path id="Path-9-Copy-15" class="st1" d="M42 210.8V222l7.6-5.6z"/></g></g></svg>